<svg width="59" height="66" viewBox="0 0 59 66" fill="none" xmlns="http://www.w3.org/2000/svg">
<path d="M49.1212 4.00379H45.7609C45.581 4.00379 45.4072 4.06477 45.2669 4.17454L43.3886 5.62296H36.5004L34.6221 4.17454C34.4788 4.06477 34.305 4.00379 34.1251 4.00379H30.7587C30.3105 4.00379 29.9476 4.36664 29.9476 4.81796V38.9695C29.9476 39.1829 30.033 39.3903 30.1855 39.5427C30.3379 39.6952 30.5453 39.7806 30.7587 39.7806H49.1209C49.3344 39.7806 49.5417 39.6952 49.6942 39.5427C49.8466 39.3903 49.932 39.1829 49.932 38.9695V4.81796C49.932 4.36667 49.5695 4.00379 49.1212 4.00379ZM48.307 38.1553H31.5724V5.62901H33.8502L35.7285 7.07742C35.8688 7.18719 36.0426 7.24818 36.2225 7.24818H43.6565C43.8364 7.24818 44.0102 7.18719 44.1505 7.07742L46.0288 5.62901H48.3066L48.307 38.1553ZM58.7078 21.4456C58.6194 19.6862 57.1253 18.3263 55.3659 18.4056H53.6583V4.37028C53.6583 3.29086 53.2284 2.25718 52.4661 1.49484C51.7038 0.732531 50.6701 0.305664 49.5907 0.305664H30.3136C28.0663 0.305664 26.2459 2.12604 26.2459 4.37028V18.0153C23.3217 18.3446 21.111 20.8175 21.108 23.7631V36.7165C21.0988 38.5856 20.3579 40.3786 19.0437 41.7081C17.8301 41.4336 16.5616 41.7965 15.6773 42.6686L0.528857 57.8264C0.211735 58.1435 0.211735 58.6558 0.528857 58.973C0.681317 59.1254 0.888669 59.2139 1.10516 59.2139C1.32166 59.2139 1.52901 59.1254 1.68147 58.973L16.7815 43.8152C17.556 43.0498 18.7879 43.0132 19.6051 43.7328L29.6554 52.6762V52.6793C30.0793 53.0604 30.3263 53.6002 30.3385 54.1704C30.3476 54.7406 30.122 55.2895 29.7103 55.6859L21.2212 63.8182C20.898 64.1292 20.8828 64.6446 21.1938 64.9678C21.5048 65.2941 22.0201 65.3063 22.3434 64.9983L30.8325 56.866C31.5673 56.1524 31.9698 55.1645 31.9394 54.143C31.9272 53.7283 31.8448 53.3227 31.6954 52.9385C32.8785 52.0146 34.3239 51.4809 35.8272 51.4169L36.9981 51.3681C39.4557 51.2736 41.7641 50.1485 43.3557 48.2701L47.3899 43.5224H49.5854C50.6617 43.5224 51.6954 43.0955 52.4578 42.3302C53.2231 41.5679 53.65 40.5342 53.65 39.4578V37.8966H55.3575C57.12 37.9728 58.6172 36.6099 58.6995 34.8474C58.6903 33.9784 58.2909 33.1581 57.6109 32.6184C58.297 32.0817 58.6995 31.2554 58.6995 30.3833C58.6995 29.5081 58.297 28.6848 57.6109 28.1451C58.297 27.6085 58.6995 26.7851 58.6995 25.9131C58.6995 25.041 58.297 24.2177 57.6109 23.681C58.294 23.1382 58.6964 22.318 58.7086 21.4459L58.7078 21.4456ZM42.1356 47.2213C40.8427 48.755 38.9674 49.6698 36.964 49.743L35.784 49.7918C33.991 49.868 32.2621 50.487 30.832 51.5725L30.7344 51.4658L20.6841 42.5224L20.556 42.4401C21.916 40.8545 22.6722 38.8389 22.6844 36.7501V23.7632C22.7088 21.7324 24.1938 20.0157 26.1972 19.6986V39.4573C26.1972 40.5337 26.6271 41.5673 27.3894 42.3297C28.1517 43.095 29.1854 43.5219 30.2648 43.5219H45.2673L42.1356 47.2213ZM52.0305 39.4549V39.4579C52.0305 40.8027 50.9389 41.8973 49.5911 41.8973H30.3141C28.9663 41.8973 27.8747 40.8027 27.8747 39.4579V4.37044C27.8747 3.02265 28.9663 1.93105 30.3141 1.93105H49.5911C50.9389 1.93105 52.0305 3.02265 52.0305 4.37044V39.4549ZM57.0801 34.8475C56.9764 35.7013 56.2232 36.3233 55.3664 36.2684H53.6589V33.4326H55.3664C56.2203 33.3778 56.9703 33.9967 57.0801 34.8475ZM57.0801 30.3834C56.9764 31.2372 56.2232 31.8592 55.3664 31.8043H53.6589V28.9594H55.3664C56.2233 28.9045 56.9764 29.5296 57.0801 30.3834ZM57.0801 25.9192C56.9703 26.7669 56.2202 27.3859 55.3664 27.3341H53.6589V24.4952H55.3664C56.2233 24.4404 56.9764 25.0655 57.0801 25.9192ZM53.6558 22.867L53.6589 20.0312H55.3664C56.2203 19.9763 56.9704 20.5953 57.0801 21.446C56.9764 22.2999 56.2232 22.9219 55.3664 22.87L53.6558 22.867ZM34.1407 15.6372L34.1437 15.6403C34.1468 12.4172 36.76 9.80705 39.98 9.80096C40.4313 9.80096 40.7942 10.1669 40.7942 10.6151C40.7942 11.0634 40.4313 11.4293 39.98 11.4293C38.2663 11.4019 36.7082 12.4142 36.0343 13.9906C35.3634 15.564 35.708 17.3906 36.9124 18.6103C38.1139 19.833 39.9373 20.202 41.5198 19.5494C43.1054 18.8999 44.1391 17.3539 44.1361 15.6403C44.1361 15.192 44.499 14.8261 44.9503 14.8261C45.3985 14.8261 45.7614 15.192 45.7614 15.6403C45.7614 18.8633 43.1482 21.4796 39.9251 21.4796C36.699 21.4796 34.0858 18.8633 34.0858 15.6403L34.1407 15.6372ZM40.0288 15.1402L43.2823 11.1548V11.1609C43.4135 10.981 43.6147 10.8621 43.8343 10.8347C44.0538 10.8072 44.2794 10.8682 44.4502 11.0085C44.624 11.1518 44.7307 11.3561 44.749 11.5787C44.7673 11.7982 44.6911 12.0178 44.5417 12.1855L40.6386 17.0002V16.9972C40.4831 17.1893 40.2514 17.2991 40.0044 17.2991C39.7483 17.293 39.5104 17.1649 39.3641 16.9576L37.9889 14.9969C37.8486 14.6523 37.9614 14.259 38.2603 14.0364C38.5591 13.8168 38.9707 13.826 39.2573 14.0638L40.0288 15.1402ZM35.8178 24.2023C34.4548 24.2023 33.3509 25.3061 33.3509 26.6691C33.3509 28.0322 34.4548 29.139 35.8178 29.139H44.5754C45.9384 29.139 47.0423 28.0322 47.0423 26.6691C47.0423 25.3061 45.9384 24.2023 44.5754 24.2023H35.8178ZM45.42 26.6417C45.42 26.8582 45.3346 27.0655 45.1822 27.218C45.0297 27.3704 44.8224 27.4558 44.6089 27.4558H35.8177C35.3543 27.4558 34.9762 27.0777 34.9762 26.6142C34.9762 26.1477 35.3543 25.7727 35.8177 25.7727H44.5754C44.8132 25.7605 45.0449 25.855 45.2066 26.0288C45.3682 26.2026 45.4474 26.4374 45.42 26.6752L45.42 26.6417ZM44.6059 30.7063H35.8178C34.4548 30.7063 33.3509 31.8132 33.3509 33.1762C33.3509 34.5392 34.4548 35.6431 35.8178 35.6431H44.5754C45.9384 35.6431 47.0423 34.5392 47.0423 33.1762C47.0423 31.8132 45.9384 30.7063 44.5754 30.7063H44.6059ZM44.6059 34.0147L35.8178 34.0178C35.3543 34.0178 34.9762 33.6397 34.9762 33.1762C34.9762 32.7097 35.3543 32.3346 35.8178 32.3346H44.5754C45.0389 32.3346 45.417 32.7097 45.417 33.1762C45.417 33.6397 45.0389 34.0178 44.5754 34.0178L44.6059 34.0147Z" fill="black"/>
</svg>
