<svg width="136" height="30" viewBox="0 0 136 30" fill="none" xmlns="http://www.w3.org/2000/svg">
<g clip-path="url(#clip0_1834_18628)">
<path d="M47.7393 6.81055V10.2776H39.616V13.2384H47.1232V16.5192H39.616V23.1525H35.7383V6.81055H47.7441H47.7393Z" fill="white"/>
<path d="M52.6481 23.1525H49.0664V6.81055H52.6481V23.1525Z" fill="white"/>
<path d="M66.4631 17.5746V18.2862H57.6951C57.8193 19.098 58.1154 19.7188 58.5882 20.1439C59.0609 20.5737 59.6674 20.7886 60.4029 20.7886C61.5633 20.7886 62.3609 20.3444 62.7907 19.4562H66.1861C65.8661 20.6787 65.1832 21.6482 64.1421 22.3597C63.1011 23.0713 61.8546 23.4247 60.4029 23.4247C58.5691 23.4247 57.0839 22.8564 55.9521 21.7246C54.8202 20.5928 54.252 19.0932 54.252 17.226C54.252 15.3588 54.8107 13.8449 55.9282 12.7274C57.0313 11.5956 58.507 11.0273 60.3599 11.0273C62.2128 11.0273 63.6789 11.6147 64.8107 12.7943C65.9139 13.9882 66.4631 15.5784 66.4631 17.5698V17.5746ZM60.3121 13.673C58.8413 13.673 57.9769 14.4514 57.719 16.013H62.953C62.8289 15.2776 62.5423 14.7045 62.0791 14.2938C61.6206 13.8831 61.0285 13.673 60.3121 13.673Z" fill="white"/>
<path d="M79.5256 11.3095L75.4425 17.0449L79.7596 23.148H75.6956L75.3995 22.7135C75.156 22.3601 74.4969 21.3668 73.4272 19.7288C72.8303 20.617 72.1665 21.6103 71.431 22.7135L71.1349 23.148H67.1426L71.5027 17.0879L67.3718 11.3047H71.4549L71.8895 11.9255C72.7443 13.2101 73.2887 14.0363 73.518 14.404C74.0862 13.4871 74.6211 12.6609 75.1225 11.9255L75.5571 11.3047H79.5256V11.3095Z" fill="white"/>
<path d="M87.6481 11.3099V13.9269H85.3749V19.457C85.3749 19.8534 85.4752 20.1256 85.671 20.2736C85.8715 20.4217 86.2202 20.4933 86.7264 20.4933H87.6433V23.1581C87.2135 23.2202 86.6643 23.2488 85.9909 23.2488C84.5057 23.2488 83.436 22.9862 82.777 22.4561C82.118 21.926 81.7884 21.0616 81.7884 19.8534V13.9317H80.0215V11.3147H81.7884V7.80469H85.3701V11.3147H87.6433L87.6481 11.3099Z" fill="white"/>
<path d="M100.57 23.1516H96.9647C96.7832 22.7982 96.6829 22.3541 96.6686 21.8192C95.8711 22.8889 94.6103 23.4238 92.8816 23.4238C91.5826 23.4238 90.5368 23.1038 89.7488 22.4591C88.9608 21.8144 88.5645 20.931 88.5645 19.7992C88.5645 17.5976 90.1117 16.3655 93.2015 16.1029L95.0592 15.9405C96.086 15.8355 96.5969 15.4439 96.5969 14.7705C96.5969 13.973 95.9904 13.5766 94.7822 13.5766C94.0468 13.5766 93.531 13.6865 93.235 13.9109C92.9389 14.1306 92.7574 14.5413 92.6953 15.1382H89.1375C89.3524 12.4018 91.2388 11.0312 94.8061 11.0312C98.3735 11.0312 100.083 12.249 100.083 14.6798V20.9692C100.083 21.9625 100.245 22.6884 100.565 23.1516H100.57ZM93.9608 21.0169C94.7727 21.0169 95.4126 20.8068 95.8902 20.3866C96.3629 19.9663 96.6017 19.3359 96.6017 18.4907V17.6167C96.3868 17.846 95.9904 17.9988 95.4078 18.0752L93.937 18.2376C92.7908 18.3617 92.2178 18.8345 92.2178 19.6607C92.2178 20.0761 92.3706 20.4009 92.6762 20.6492C92.9819 20.8928 93.4116 21.0169 93.9608 21.0169Z" fill="white"/>
<path d="M109.063 11.0369C110.653 11.0369 111.919 11.5956 112.85 12.7131C113.767 13.8306 114.225 15.3397 114.225 17.2356C114.225 19.1315 113.767 20.6405 112.85 21.758C111.919 22.8755 110.653 23.4342 109.063 23.4342C107.473 23.4342 106.293 22.8134 105.481 21.5765V23.162H101.99V6.81055H105.572V12.7561C106.384 11.61 107.544 11.0369 109.058 11.0369H109.063ZM108.074 20.5594C108.872 20.5594 109.488 20.2633 109.932 19.6759C110.376 19.0885 110.596 18.2432 110.596 17.1401C110.596 14.9815 109.755 13.9022 108.07 13.9022C106.384 13.9022 105.524 15.0102 105.524 17.2308C105.524 19.4514 106.374 20.5594 108.07 20.5594H108.074Z" fill="white"/>
<path d="M119.392 23.1525H115.811V6.81055H119.392V23.1525Z" fill="white"/>
<path d="M133.207 17.5746V18.2862H124.439C124.563 19.098 124.86 19.7188 125.332 20.1439C125.805 20.5737 126.412 20.7886 127.147 20.7886C128.307 20.7886 129.105 20.3444 129.535 19.4562H132.93C132.61 20.6787 131.927 21.6482 130.886 22.3597C129.845 23.0713 128.599 23.4247 127.147 23.4247C125.313 23.4247 123.828 22.8564 122.696 21.7246C121.564 20.5928 120.996 19.0932 120.996 17.226C120.996 15.3588 121.555 13.8449 122.672 12.7274C123.775 11.5956 125.251 11.0273 127.104 11.0273C128.957 11.0273 130.423 11.6147 131.555 12.7943C132.658 13.9882 133.207 15.5784 133.207 17.5698V17.5746ZM127.056 13.673C125.585 13.673 124.721 14.4514 124.463 16.013H129.697C129.573 15.2776 129.286 14.7045 128.823 14.2938C128.365 13.8831 127.773 13.673 127.056 13.673Z" fill="white"/>
<path d="M0.111328 16.8434C0.111328 21.6667 2.14094 26.0172 5.38833 29.0831C7.12186 29.68 8.97955 30 10.9137 30C20.3072 30 27.9194 22.3878 27.9194 12.9943C27.9194 8.40019 26.0999 4.23591 23.1391 1.17479C21.2241 0.415473 19.1324 0 16.95 0C7.65194 0.00477555 0.111328 7.54537 0.111328 16.8434Z" fill="white"/>
</g>
<defs>
<clipPath id="clip0_1834_18628">
<rect width="135" height="30" fill="white" transform="translate(0.111328)"/>
</clipPath>
</defs>
</svg>
