<svg width="135" height="30" viewBox="0 0 135 30" fill="none" xmlns="http://www.w3.org/2000/svg">
<path d="M36.043 7.08203H46.9887V10.0432H39.5966V13.8078H45.661V16.631H39.5966V23.1499H36.043V7.08203Z" fill="black"/>
<path d="M48.6699 7.08203H52.01V23.1488H48.6699V7.08203Z" fill="black"/>
<path d="M59.9932 11.2129C63.6892 11.2129 66.2237 13.4395 66.2711 16.8823C66.2711 17.295 66.2474 17.6628 66.1762 17.9836H57.339V18.0755C57.5051 19.7964 58.4995 20.8298 60.2057 20.8298C61.556 20.8298 62.504 20.2561 62.7876 19.1538H66.0802C65.7017 21.4954 63.5932 23.2852 60.4419 23.2852C56.3673 23.2852 53.8555 20.9207 53.8555 17.272C53.8555 13.6234 56.3425 11.2129 59.991 11.2129H59.9932ZM62.931 15.8719C62.7175 14.4258 61.6519 13.6223 60.1356 13.6223C58.6192 13.6223 57.6011 14.4948 57.4113 15.8719H62.931Z" fill="black"/>
<path d="M71.5312 17.1349L67.2194 11.3506H71.0341L73.5685 14.8394L76.1505 11.3506H79.7278L75.4397 17.1349L79.9651 23.1481H76.1505L73.355 19.4524L70.5832 23.1481H67.0059L71.5312 17.1349Z" fill="black"/>
<path d="M81.955 14.083H79.9414V11.3518H81.955V8.04688H85.2951V11.3518H88.0668V14.083H85.2951V19.2467C85.2951 20.0732 85.6273 20.417 86.4793 20.417H88.2092V23.1482H85.4374C83.1154 23.1482 81.955 22.024 81.955 19.7744V14.082V14.083Z" fill="black"/>
<path d="M101.595 20.4179V23.1492H99.8887C98.3486 23.1492 97.6141 22.5066 97.6378 21.2214C96.761 22.5755 95.4819 23.2871 93.6582 23.2871C90.9339 23.2871 89.1328 22.0249 89.1328 19.8213C89.1328 17.3199 91.0989 15.8968 94.7237 15.8968H97.1407V15.3232C97.1407 14.2449 96.2638 13.5793 94.8661 13.5793C93.6345 13.5793 92.8051 14.1299 92.639 15.0254H89.4175C89.6311 12.6159 91.7395 11.2158 95.0322 11.2158C98.3248 11.2158 100.433 12.7309 100.433 15.5081V19.6625C100.433 20.2361 100.671 20.42 101.215 20.42H101.594L101.595 20.4179ZM97.1407 18.0534H94.7C93.3023 18.0534 92.4966 18.604 92.4966 19.5914C92.4966 20.4179 93.1837 20.9456 94.2967 20.9456C96.0266 20.9456 97.1159 19.9122 97.1396 18.2832V18.0534H97.1407Z" fill="black"/>
<path d="M115.548 17.2266C115.548 20.8303 113.179 23.2857 109.934 23.2857C108.228 23.2857 106.972 22.6201 106.143 21.5418L105.811 23.1488H102.896V7.08203H106.237V12.8434C107.161 11.7651 108.393 11.2134 109.909 11.2134C113.178 11.2134 115.547 13.509 115.547 17.2266H115.548ZM112.161 17.2496C112.161 15.2298 110.953 13.8527 109.152 13.8527C107.351 13.8527 106.19 15.2069 106.19 17.2266C106.19 19.2463 107.351 20.6464 109.152 20.6464C110.953 20.6464 112.161 19.2693 112.161 17.2496Z" fill="black"/>
<path d="M117.396 7.08203H120.737V23.1488H117.396V7.08203Z" fill="black"/>
<path d="M128.72 11.2129C132.416 11.2129 134.95 13.4395 134.998 16.8823C134.998 17.295 134.974 17.6628 134.903 17.9836H126.066V18.0755C126.232 19.7964 127.226 20.8298 128.932 20.8298C130.283 20.8298 131.231 20.2561 131.514 19.1538H134.807C134.428 21.4954 132.32 23.2852 129.168 23.2852C125.094 23.2852 122.582 20.9207 122.582 17.272C122.582 13.6234 125.069 11.2129 128.718 11.2129H128.72ZM131.658 15.8719C131.444 14.4258 130.378 13.6223 128.862 13.6223C127.346 13.6223 126.328 14.4948 126.138 15.8719H131.658Z" fill="black"/>
<path d="M0 16.84C0 21.6631 2.09337 26.0128 5.4475 29.0826C7.23565 29.6771 9.1543 30.001 11.1506 30.001C20.8452 30.001 28.7053 22.3872 28.7053 12.9939C28.7053 8.40171 26.8255 4.23481 23.7723 1.17547C21.7943 0.416899 19.6384 0 17.3822 0C7.78245 0 0 7.5397 0 16.84Z" fill="black"/>
</svg>
