<svg width="40" height="40" viewBox="0 0 40 40" fill="none" xmlns="http://www.w3.org/2000/svg">
<path d="M20 39.5833C9.18442 39.5833 0.416667 30.8156 0.416667 20C0.416667 9.18442 9.18442 0.416667 20 0.416667C30.8156 0.416667 39.5833 9.18442 39.5833 20C39.5833 30.8156 30.8156 39.5833 20 39.5833Z" stroke="black" stroke-opacity="0.1" stroke-width="0.833333"/>
<path d="M26.6673 27.5V25.8333C26.6673 24.9493 26.3161 24.1014 25.691 23.4763C25.0659 22.8512 24.218 22.5 23.334 22.5H16.6673C15.7833 22.5 14.9354 22.8512 14.3103 23.4763C13.6852 24.1014 13.334 24.9493 13.334 25.8333V27.5M23.334 15.8333C23.334 17.6743 21.8416 19.1667 20.0007 19.1667C18.1597 19.1667 16.6673 17.6743 16.6673 15.8333C16.6673 13.9924 18.1597 12.5 20.0007 12.5C21.8416 12.5 23.334 13.9924 23.334 15.8333Z" stroke="black" stroke-opacity="0.4" stroke-width="1.66667" stroke-linecap="round" stroke-linejoin="round"/>
</svg>
