<svg width="34" height="24" viewBox="0 0 34 24" fill="none" xmlns="http://www.w3.org/2000/svg">
<rect width="34" height="24" rx="5" fill="white"/>
<rect x="0.5" y="0.5" width="33" height="23" rx="4.5" stroke="black" stroke-opacity="0.1"/>
<g clip-path="url(#clip0_2479_47019)">
<mask id="mask0_2479_47019" style="mask-type:luminance" maskUnits="userSpaceOnUse" x="11" y="6" width="13" height="12">
<path d="M11 6H23.1993V18H11V6Z" fill="white"/>
</mask>
<g mask="url(#mask0_2479_47019)">
<path d="M21.9319 6H11.6337C11.2852 6 11 6.28571 11 6.63492V7.77777C11 8.12699 11.2852 8.4127 11.6337 8.4127H21.9002C22.2487 8.4127 22.5339 8.12699 22.5339 7.77777V6.63492C22.5656 6.28571 22.2804 6 21.9319 6ZM21.9319 12.3809H11.6337C11.2852 12.3809 11 12.6667 11 13.0159V14.1587C11 14.5079 11.2852 14.7936 11.6337 14.7936H21.9002C22.2487 14.7936 22.5339 14.5079 22.5339 14.1587V13.0159C22.5656 12.6667 22.2804 12.3809 21.9319 12.3809ZM17.4324 15.5873H11.6337C11.2852 15.5873 11 15.873 11 16.2222V17.3651C11 17.7143 11.2852 18 11.6337 18H17.4324C17.7809 18 18.0661 17.7143 18.0661 17.3651V16.2222C18.0661 15.873 17.7809 15.5873 17.4324 15.5873ZM22.5656 9.20635H11.6337C11.2852 9.20635 11 9.49206 11 9.84126V10.9841C11 11.3333 11.2852 11.6191 11.6337 11.6191H22.5656C22.9142 11.6191 23.1993 11.3333 23.1993 10.9841V9.84126C23.1993 9.49206 22.9142 9.20635 22.5656 9.20635Z" fill="#0BA4DB"/>
</g>
</g>
<defs>
<clipPath id="clip0_2479_47019">
<rect width="12.1993" height="12" fill="white" transform="translate(11 6)"/>
</clipPath>
</defs>
</svg>
