<svg width="32" height="32" viewBox="0 0 32 32" fill="none" xmlns="http://www.w3.org/2000/svg">
<g clip-path="url(#clip0_2479_46241)">
<path d="M9.11952 9.20211L5.58452 6.93711C5.27952 6.74961 5.22952 6.32711 5.48202 6.07461L6.80952 4.74711C7.06452 4.49211 7.49452 4.54711 7.67702 4.85961L9.88702 8.45211C10.177 8.94711 9.60952 9.50211 9.11952 9.20211Z" fill="#FFC107"/>
<path d="M6.0285 20.0968L1.9235 20.1793C1.566 20.1868 1.311 20.5268 1.401 20.8718L1.8785 22.6868C1.971 23.0368 2.3685 23.2043 2.6835 23.0293L6.311 21.1318C6.811 20.8493 6.6035 20.0843 6.0285 20.0968Z" fill="#FFC107"/>
<path d="M15.5637 27.0696L14.6637 31.0671C14.5812 31.4146 14.8437 31.7496 15.2012 31.7496H17.0787C17.4412 31.7496 17.7037 31.4071 17.6137 31.0571L16.6362 27.0596C16.4912 26.5021 15.6987 26.5096 15.5637 27.0696Z" fill="#FFC107"/>
<path d="M22.8854 9.20211L26.4204 6.93711C26.7254 6.74961 26.7754 6.32711 26.5229 6.07461L25.1954 4.74711C24.9404 4.49211 24.5104 4.54711 24.3279 4.85961L22.1179 8.45211C21.8279 8.94711 22.3954 9.50211 22.8854 9.20211Z" fill="#FFC107"/>
<path d="M25.9789 20.0968L30.0839 20.1793C30.4414 20.1868 30.6964 20.5268 30.6064 20.8718L30.1289 22.6868C30.0364 23.0368 29.6389 23.2043 29.3239 23.0293L25.6964 21.1318C25.1964 20.8493 25.4039 20.0843 25.9789 20.0968Z" fill="#FFC107"/>
<path d="M17.0121 1.8075L20.3771 9.4825C20.6346 10.07 21.1921 10.4725 21.8321 10.53L30.0296 11.265C30.9571 11.4 31.3271 12.5375 30.6546 13.1925L24.4796 18.38C23.9796 18.8 23.7521 19.46 23.8896 20.0975L25.6846 28.5C25.8421 29.4225 24.8746 30.1275 24.0446 29.69L16.8896 25.5C16.3396 25.1775 15.6596 25.1775 15.1096 25.5L7.9546 29.6875C7.1271 30.1225 6.1571 29.42 6.3146 28.4975L8.1096 20.095C8.2446 19.4575 8.0196 18.7975 7.5196 18.3775L1.3421 13.195C0.672096 12.5425 1.0421 11.4025 1.9671 11.2675L10.1646 10.5325C10.8046 10.475 11.3621 10.0725 11.6196 9.485L14.9846 1.81C15.4021 0.97 16.5971 0.97 17.0121 1.8075Z" fill="#FDD835"/>
<path d="M16.7652 9.94262L16.1952 4.28762C16.1727 3.97262 16.1077 3.43262 16.6127 3.43262C17.0127 3.43262 17.2302 4.26512 17.2302 4.26512L18.9402 8.80512C19.5852 10.5326 19.3202 11.1251 18.6977 11.4751C17.9827 11.8751 16.9277 11.5626 16.7652 9.94262Z" fill="#FFFF8D"/>
<path d="M23.8201 17.8772L28.7251 14.0497C28.9676 13.8472 29.4051 13.5247 29.0551 13.1572C28.7776 12.8672 28.0276 13.2847 28.0276 13.2847L23.7351 14.9622C22.4551 15.4047 21.6051 16.0597 21.5301 16.8847C21.4326 17.9847 22.4201 18.8322 23.8201 17.8772Z" fill="#F4B400"/>
</g>
<defs>
<clipPath id="clip0_2479_46241">
<rect width="32" height="32" fill="white"/>
</clipPath>
</defs>
</svg>
